<svg xmlns="http://www.w3.org/2000/svg" width="1200" height="630" viewBox="0 0 1200 630" role="img" aria-label="LangTailor  Visual Agent IDE">
  <defs>
    <linearGradient id="glow" x1="0%" y1="0%" x2="100%" y2="100%">
      <stop offset="0%" stop-color="#4f46e5"/>
      <stop offset="100%" stop-color="#00e5a0"/>
    </linearGradient>
    <pattern id="grid" width="48" height="48" patternUnits="userSpaceOnUse">
      <path d="M 48 0 L 0 0 0 48" fill="none" stroke="#1a1a1a" stroke-width="1"/>
    </pattern>
  </defs>
  <rect width="1200" height="630" fill="#000"/>
  <rect width="1200" height="630" fill="url(#grid)" opacity="0.55"/>
  <rect x="48" y="48" width="1104" height="534" rx="12" fill="none" stroke="#262626" stroke-width="2"/>
  <rect x="88" y="120" width="52" height="52" rx="14" fill="#4f46e5"/>
  <circle cx="104" cy="138" r="4" fill="#c7d2fe"/>
  <circle cx="124" cy="138" r="4" fill="#a5b4fc"/>
  <circle cx="114" cy="154" r="4" fill="#818cf8"/>
  <text x="160" y="148" fill="#f5f5f5" font-family="system-ui,Segoe UI,sans-serif" font-size="34" font-weight="700" letter-spacing="-0.03em">LangTailor</text>
  <text x="160" y="178" fill="#8b929e" font-family="system-ui,Segoe UI,sans-serif" font-size="18" font-weight="500">Visual Agent IDE À by LangStitch</text>
  <text x="88" y="268" fill="#f5f5f5" font-family="system-ui,Segoe UI,sans-serif" font-size="52" font-weight="700" letter-spacing="-0.04em">Design agents visually.</text>
  <text x="88" y="332" fill="#f5f5f5" font-family="system-ui,Segoe UI,sans-serif" font-size="52" font-weight="700" letter-spacing="-0.04em">Ship to production.</text>
  <rect x="88" y="382" width="210" height="36" rx="6" fill="rgba(0,229,160,0.12)" stroke="rgba(0,229,160,0.35)" stroke-width="1"/>
  <text x="104" y="405" fill="#00e5a0" font-family="ui-monospace,Consolas,monospace" font-size="16" font-weight="600">Canvas Æ Code Æ Cluster</text>
  <g font-family="ui-monospace,Consolas,monospace" font-size="15" font-weight="600">
    <rect x="88" y="448" width="72" height="32" rx="6" fill="#0f0f0f" stroke="#262626"/>
    <text x="124" y="469" fill="#00e5a0" text-anchor="middle">Python</text>
    <rect x="172" y="448" width="72" height="32" rx="6" fill="#0f0f0f" stroke="#262626"/>
    <text x="208" y="469" fill="#a5b4fc" text-anchor="middle">Java</text>
    <rect x="256" y="448" width="56" height="32" rx="6" fill="#0f0f0f" stroke="#262626"/>
    <text x="284" y="469" fill="#fcd34d" text-anchor="middle">Go</text>
    <rect x="324" y="448" width="56" height="32" rx="6" fill="#0f0f0f" stroke="#262626"/>
    <text x="352" y="469" fill="#fda4af" text-anchor="middle">Rust</text>
    <rect x="392" y="448" width="88" height="32" rx="6" fill="#f5f5f5"/>
    <text x="436" y="469" fill="#000" text-anchor="middle">Free À MIT</text>
  </g>
  <rect x="760" y="120" width="352" height="360" rx="10" fill="#0a0a0a" stroke="#1a1a1a" stroke-width="1"/>
  <rect x="776" y="136" width="320" height="28" rx="4" fill="#14161a" stroke="#262626"/>
  <circle cx="790" cy="150" r="4" fill="#34d399"/>
  <circle cx="804" cy="150" r="4" fill="#818cf8"/>
  <circle cx="818" cy="150" r="4" fill="#fbbf24"/>
  <text x="836" y="155" fill="#767b84" font-family="ui-monospace,Consolas,monospace" font-size="11">billing-agent.langstitch</text>
  <rect x="776" y="176" width="72" height="280" rx="4" fill="#14161a" stroke="#262626"/>
  <rect x="860" y="176" width="236" height="280" rx="4" fill="#0d0e11" stroke="#262626"/>
  <rect x="888" y="210" width="88" height="28" rx="4" fill="#14161a" stroke="rgba(129,140,248,0.4)"/>
  <rect x="996" y="210" width="72" height="28" rx="4" fill="#14161a" stroke="#262626"/>
  <rect x="888" y="260" width="88" height="28" rx="4" fill="#14161a" stroke="rgba(167,139,250,0.35)"/>
  <path d="M 976 224 L 996 224" stroke="#818cf8" stroke-width="2" fill="none"/>
  <path d="M 932 238 L 932 260" stroke="#818cf8" stroke-width="2" fill="none"/>
  <text x="88" y="560" fill="#8b929e" font-family="system-ui,Segoe UI,sans-serif" font-size="16">langstitch.com À langtailor.langstitch.com</text>
  <rect x="900" y="532" width="212" height="4" rx="2" fill="url(#glow)"/>
</svg>
